<svg xmlns="http://www.w3.org/2000/svg" viewBox="0 0 135.47 135.47" height="512" width="512"><defs><linearGradient id="a"><stop offset="0"/><stop offset="1" stop-opacity="0"/></linearGradient></defs><g transform="translate(-25.7 -46.63)"><circle r="67.73" cy="114.36" cx="93.44" fill="#fba05c"/><path d="M76.04 99.75c-5.93-3.5-11.53-1.9-21.66 2.15l-4.11-8.87c6.27-2.93 10.28-4.52 16.1-5.22 5.24-.6 11.54-.62 16.83 2.5 8.47 5 10.75 11.54 14.58 21.12 3.77 9.44 7.24 14.6 11.62 17.17a16.2 16.2 0 0 0 9.22 1.65c4.22-.32 7.95-1.8 14.17-5.06l3.82 9.57c-7.1 3.48-11.18 4.79-15.74 5.64-7.1 1.42-12.77 1.24-18.7-2.25-15.96-9.41-12.95-30.64-26.13-38.4z" fill="#fff"/></g></svg>