<svg xmlns="http://www.w3.org/2000/svg" viewBox="0 0 20 20">
<path d="m 20,10.000411 c 0,-1.2995461 -0.995131,-2.3533002 -2.222578,-2.3533002 -0.625918,0 -1.190241,0.2750078 -1.59408,0.7159797 C 14.665812,7.2521302 12.633626,6.5465161 10.388439,6.477624 l 1.167187,-5.5745955 3.722751,0.8738404 c 0.0061,0.968933 0.749108,1.7525818 1.665288,1.7525818 0.921608,0 1.667512,-0.7900569 1.667512,-1.7646444 0,-0.97458749 -0.745904,-1.764738597088 -1.667512,-1.764738597088 -0.651642,0 -1.214364,0.397336907088 -1.488069,0.974777417088 L 11.344405,0.00986972 C 11.134252,-0.03941986 10.926948,0.10072214 10.880574,0.32276381 L 9.5914449,6.4790369 C 7.3590752,6.5613133 5.3414868,7.2739948 3.8368632,8.3867463 3.431779,7.9322958 2.8591783,7.6471108 2.2223115,7.6471108 0.99468625,7.6471108 0,8.7007707 0,10.000222 c 0,0.934252 0.51545715,1.739105 1.2607368,2.119006 -0.079574,0.363315 -0.1231013,0.73577 -0.1231013,1.115955 0,3.730126 3.9873784,6.764817 8.8885325,6.764817 4.9016,0 8.889334,-3.034691 8.889334,-6.764817 0,-0.388666 -0.04566,-0.76904 -0.128713,-1.139894 0.719557,-0.389608 1.213207,-1.180419 1.213207,-2.094878 z M 4.6666128,12.353238 c 0,-0.973175 0.7475941,-1.764927 1.6664438,-1.764927 0.9192055,0 1.6669775,0.791752 1.6669775,1.764927 0,0.972986 -0.747772,1.764456 -1.6669775,1.764456 -0.9188483,10e-7 -1.6664438,-0.79147 -1.6664438,-1.764456 z m 9.0435882,4.186461 c -1.066428,1.127549 -3.109918,1.21529 -3.7108252,1.21529 -0.6010835,0 -2.6447529,-0.08774 -3.7098448,-1.215478 -0.158081,-0.167473 -0.158081,-0.4389 8.9e-5,-0.606373 0.158081,-0.167284 0.4145197,-0.167379 0.5726896,9.4e-5 0.6721134,0.71174 2.1099801,0.964316 3.1370662,0.964316 1.0270862,0 2.4652202,-0.25267 3.1385802,-0.964598 0.158349,-0.167191 0.414697,-0.166908 0.5726,4.71e-4 0.157994,0.167567 0.157905,0.438994 -3.55e-4,0.606278 z m -0.04388,-2.422004 c -0.918849,0 -1.666355,-0.791563 -1.666355,-1.764456 0,-0.973174 0.747506,-1.764927 1.666355,-1.764927 0.919206,0 1.667067,0.791753 1.667067,1.764927 1e-6,0.972891 -0.747861,1.764456 -1.667067,1.764456 z"/>
</svg>
