<svg xmlns="http://www.w3.org/2000/svg"
 width="512.000000pt" height="512.000000pt" viewBox="0 0 512.000000 512.000000"
 preserveAspectRatio="xMidYMid meet">
<g transform="translate(0.000000,512.000000) scale(0.100000,-0.100000)"
fill="#000000" stroke="none">
<path d="M2341 5100 c-551 -54 -1034 -259 -1451 -617 -596 -511 -928 -1306
-872 -2086 25 -360 102 -646 257 -962 201 -408 496 -746 873 -995 608 -404
1333 -528 2042 -350 235 59 525 182 720 306 217 138 445 336 602 524 174 207
351 512 442 761 148 402 192 879 120 1298 -90 529 -335 1002 -714 1381 -397
397 -876 638 -1433 721 -153 23 -447 32 -586 19z m639 -1240 c475 -10 763 -24
865 -41 186 -31 310 -159 365 -374 59 -231 75 -972 30 -1392 -36 -333 -153
-500 -385 -547 -146 -30 -490 -41 -1300 -41 -804 1 -1075 10 -1249 40 -216 38
-328 146 -385 370 -76 301 -77 1260 -1 1570 52 209 168 333 347 370 94 19 404
36 823 44 195 4 373 8 395 9 22 1 245 -3 495 -8z"/>
<path d="M2210 2670 c0 -278 4 -480 9 -478 42 16 888 484 883 489 -4 4 -164
89 -357 189 -192 100 -392 205 -442 232 l-93 49 0 -481z"/>
</g>
</svg>
